<svg width="5995" height="5142" viewBox="0 0 5995 5142" fill="none" xmlns="http://www.w3.org/2000/svg">
<g id="devuitlegLogo">
<g id="Group 173">
<path id="Subtract" fill-rule="evenodd" clip-rule="evenodd" d="M2344 1000H2343V2816C2343 3548.33 2936.67 4142 3669 4142C4401.33 4142 4995 3548.33 4995 2816V1178H4996V0H5995V1000V2816C5995 4100.61 4953.61 5142 3669 5142C2384.39 5142 1343 4100.61 1343 2816V1000V0H2343H2344V1000Z" fill="#736DFF"/>
<path id="Rectangle 798" d="M500 500H1929C3072.78 500 4000 1427.22 4000 2571C4000 3714.78 3072.78 4642 1929 4642H500V500Z" stroke="#5752CD" stroke-width="1000"/>
</g>
<path id="Rectangle 800" d="M1343 0H2343V1532H1343V0Z" fill="#736DFF"/>
</g>
</svg>
